<svg width="29" height="29" viewBox="0 0 29 29" fill="none" xmlns="http://www.w3.org/2000/svg">
<path d="M28.9809 23.8683C28.8887 23.1715 28.4864 22.5706 27.8773 22.2199L20.7229 18.1007C19.8466 17.5962 18.735 17.7431 18.0198 18.4582L16.6106 19.8674C16.2356 20.2425 15.6423 20.2757 15.2309 19.9445C14.1199 19.0506 13.0261 18.0668 11.9798 17.0205C10.9335 15.9742 9.94972 14.8804 9.05575 13.7694C8.7246 13.3579 8.75773 12.7647 9.13285 12.3896L10.542 10.9804C11.2571 10.2653 11.4042 9.15384 10.8996 8.27741L6.78032 1.123C6.42957 0.513826 5.82879 0.111592 5.13193 0.0193954C4.435 -0.0729894 3.75022 0.159444 3.25316 0.656506L1.12981 2.77992C-0.352164 4.26196 -0.375965 6.97287 1.0628 10.4134C2.44625 13.7216 5.02802 17.3634 8.33239 20.6679C11.6369 23.9723 15.2787 26.5541 18.5869 27.9375C20.2805 28.6457 21.7971 28.9996 23.0776 28.9995C24.3984 28.9995 25.4679 28.6229 26.2204 27.8704L28.3438 25.747C28.8408 25.25 29.073 24.5652 28.9809 23.8683ZM20.2541 18.9149L27.4085 23.0341C27.7623 23.2378 27.996 23.5868 28.0494 23.9915C28.0944 24.3312 28.0062 24.6657 27.8061 24.9352L18.298 19.5087L18.6841 19.1226C19.0995 18.7072 19.7452 18.6219 20.2541 18.9149ZM5.00866 0.950822C5.41347 1.00437 5.7624 1.238 5.96608 1.59182L10.0853 8.74622C10.3784 9.25525 10.293 9.90087 9.87769 10.3161L9.52299 10.6708L4.06671 1.19415C4.28975 1.02899 4.55651 0.939297 4.8346 0.939297C4.89229 0.939297 4.95048 0.943118 5.00866 0.950822ZM25.556 27.2061C24.3786 28.3835 21.9706 28.3341 18.9494 27.0707C15.7513 25.7333 12.2168 23.2235 8.99681 20.0035C5.7768 16.7835 3.26694 13.249 1.92958 10.0509C0.666073 7.02968 0.616781 4.62166 1.79417 3.44421L3.37048 1.86784L8.83496 11.3589L8.46849 11.7253C7.75353 12.4404 7.69127 13.5723 8.32374 14.3585C9.23876 15.4956 10.2453 16.6148 11.3154 17.6848C12.3855 18.7549 13.5047 19.7615 14.6418 20.6765C15.4279 21.309 16.5598 21.2468 17.2749 20.5317L17.6093 20.1974L27.1306 25.6314L25.556 27.2061Z" fill="black"/>
</svg>
